<?xml version="1.0" encoding="UTF-8" standalone="no"?>
<!-- Created with Inkscape (http://www.inkscape.org/) -->

<svg
   width="495.8844"
   height="314.65436"
   viewBox="0 0 495.8844 314.65436"
   version="1.1"
   id="svg1"
   xmlns="http://www.w3.org/2000/svg"
   xmlns:svg="http://www.w3.org/2000/svg">
  <defs
     id="defs1" />
  <g
     id="layer3"
     style="display:none"
     transform="translate(-10.420855,-93.539145)">
    <rect
       style="fill:#539987;fill-opacity:1;stroke:none;stroke-width:4;stroke-linecap:square;stroke-linejoin:round;stroke-dasharray:none;stroke-opacity:1"
       id="rect4"
       width="727.07806"
       height="609.07062"
       x="-107.85625"
       y="-29.184635" />
  </g>
  <text
     xml:space="preserve"
     style="font-style:normal;font-variant:normal;font-weight:normal;font-stretch:normal;font-size:93.3732px;line-height:1.25;font-family:Calibri;-inkscape-font-specification:Calibri;letter-spacing:0px;word-spacing:0px;display:inline;fill:#ffffff;stroke-width:2.33433"
     x="-1.7251887"
     y="261.61307"
     id="text2-7"
     transform="scale(0.83142991,1.2027472)"><tspan
       id="tspan2-1"
       style="font-style:normal;font-variant:normal;font-weight:normal;font-stretch:normal;font-family:Sofachrome;-inkscape-font-specification:Sofachrome;fill:#ffffff;stroke-width:2.33433"
       x="-1.7251887"
       y="261.61307">BikeGo</tspan></text>
  <g
     id="layer1"
     transform="translate(22.77724,-173.39402)">
    <g
       id="g3"
       transform="matrix(2.3903738,0,0,2.2750723,22.85034,127.83307)">
      <path
         style="fill:none;fill-opacity:1;stroke:#191c4d;stroke-width:3.80636;stroke-linecap:round;stroke-linejoin:round;stroke-dasharray:none;stroke-opacity:1"
         d="M 69.711438,115.74232 H 172.66578 V 88.436737 Z"
         id="path2" />
      <path
         style="fill:#191c4d;fill-opacity:1;stroke:none;stroke-width:0.825765;stroke-linecap:round;stroke-linejoin:round;stroke-dasharray:none;stroke-opacity:1"
         d="m 114.60873,115.90551 h 57.86319 v -15.34649 z"
         id="path2-3" />
    </g>
    <g
       id="g2"
       transform="translate(1.2688972,-12.688971)">
      <path
         style="fill:#191c4d;stroke:#ffffff;stroke-width:3.9;stroke-linecap:round;stroke-linejoin:round;stroke-dasharray:none"
         d="M 53.946032,324.21604 120.37014,307.00371"
         id="path1-6" />
      <path
         style="fill:#191c4d;stroke:#ffffff;stroke-width:3.9;stroke-linecap:round;stroke-linejoin:round;stroke-dasharray:none"
         d="m 71.825481,330.63327 40.782669,-10.3559"
         id="path1-4-6" />
      <path
         style="fill:#191c4d;stroke:#ffffff;stroke-width:3.9;stroke-linecap:round;stroke-linejoin:round;stroke-dasharray:none"
         d="m 274.27342,351.13985 40.78267,-10.3559"
         id="path1-4-6-6" />
      <path
         style="fill:#191c4d;stroke:#ffffff;stroke-width:3.9;stroke-linecap:round;stroke-linejoin:round;stroke-dasharray:none"
         d="m 278.35445,339.78373 26.30586,-6.67982"
         id="path1-4-6-8" />
      <path
         style="fill:#191c4d;stroke:#ffffff;stroke-width:3.9;stroke-linecap:round;stroke-linejoin:round;stroke-dasharray:none"
         d="m 267.0994,332.10818 26.5954,-6.75334"
         id="path1-4-6-9" />
      <path
         style="fill:#191c4d;stroke:#ffffff;stroke-width:3.9;stroke-linecap:round;stroke-linejoin:round;stroke-dasharray:none"
         d="M 86.667748,250.16233 153.09185,232.95"
         id="path1-6-2-1" />
      <path
         style="fill:#191c4d;stroke:#ffffff;stroke-width:3.9;stroke-linecap:round;stroke-linejoin:round;stroke-dasharray:none"
         d="m 103.5954,253.60089 66.4241,-17.21233"
         id="path1-6-2-34" />
      <path
         style="fill:#191c4d;stroke:#ffffff;stroke-width:3.9;stroke-linecap:round;stroke-linejoin:round;stroke-dasharray:none"
         d="M 53.294399,389.5652 119.7185,372.35287"
         id="path1-6-2-5" />
      <path
         style="fill:#191c4d;stroke:#ffffff;stroke-width:3.9;stroke-linecap:round;stroke-linejoin:round;stroke-dasharray:none"
         d="m 41.91702,370.76939 66.4241,-17.21233"
         id="path1-6-2-7" />
      <path
         style="fill:#191c4d;stroke:#ffffff;stroke-width:3.9;stroke-linecap:round;stroke-linejoin:round;stroke-dasharray:none"
         d="M 41.721575,349.04005 108.14568,331.82772"
         id="path1-6-2-3" />
      <path
         style="fill:#191c4d;stroke:#ffffff;stroke-width:3.9;stroke-linecap:round;stroke-linejoin:round;stroke-dasharray:none"
         d="M 70.449586,374.0896 111.23226,363.7337"
         id="path1-4-6-7-1" />
      <path
         style="fill:#191c4d;stroke:#ffffff;stroke-width:3.9;stroke-linecap:round;stroke-linejoin:round;stroke-dasharray:none"
         d="m 65.675222,353.45427 40.782668,-10.3559"
         id="path1-4-6-7-3" />
    </g>
    <g
       id="layer4"
       transform="matrix(2.6929311,0,0,2.5630355,1.9624211,100.35705)">
      <ellipse
         style="fill:none;fill-opacity:1;stroke:#191c4d;stroke-width:5.07419;stroke-linecap:square;stroke-linejoin:bevel;stroke-dasharray:none;stroke-opacity:1;paint-order:stroke markers fill"
         id="path165-5"
         cx="104.12761"
         cy="97.702126"
         rx="18.096027"
         ry="18.008259"
         transform="matrix(0.97266061,-0.23223123,0.21139314,0.97740112,0,0)" />
      <ellipse
         style="fill:none;fill-opacity:1;stroke:#191c4d;stroke-width:5.07419;stroke-linecap:square;stroke-linejoin:bevel;stroke-dasharray:none;stroke-opacity:1;paint-order:stroke markers fill"
         id="path165-5-6"
         cx="38.056019"
         cy="97.702126"
         rx="18.096027"
         ry="18.008259"
         transform="matrix(0.97266061,-0.23223123,0.21139314,0.97740112,0,0)" />
      <path
         id="rect168-4-5-9"
         style="fill:#191c4d;fill-opacity:1;stroke:#ffffff;stroke-width:3.06295;stroke-linecap:square;stroke-linejoin:bevel;stroke-dasharray:none;stroke-opacity:1;paint-order:stroke markers fill"
         d="M 91.460918,41.833734 100.1623,31.034672 c 0.59964,-0.744167 1.83116,-1.150913 2.76174,-0.911566 l 1.59769,0.410748 c 0.93087,0.239176 1.19716,1.030783 0.59647,1.775276 l -8.701397,10.799066 c -0.599621,0.744159 -1.831159,1.15091 -2.76183,0.911588 l -1.597585,-0.410773 c -0.930881,-0.239177 -1.196094,-1.031038 -0.59647,-1.775277 z m -3.258652,34.338349 14.504704,-23.49121 c 0.40177,-0.650469 1.28796,-0.925659 1.9872,-0.617655 l 1.20053,0.529293 c 0.69973,0.308183 0.93928,1.079671 0.53748,1.730028 L 91.927463,77.813713 c -0.401777,0.650466 -1.287961,0.92566 -1.9872,0.617652 l -1.20054,-0.529291 c -0.699715,-0.308186 -0.939264,-1.079616 -0.537457,-1.729991 z m 9.756377,-36.637448 24.744047,29.200488 c 0.46723,0.55197 0.31804,1.367013 -0.34247,1.829761 l -1.12857,0.793318 c -0.65727,0.462134 -1.56248,0.389727 -2.03,-0.161985 L 94.457628,41.995733 C 93.989323,41.44402 94.13957,40.628675 94.800089,40.165962 l 1.128558,-0.793315 c 0.657286,-0.462133 1.562476,-0.389714 2.029996,0.161988 z M 65.564576,48.06896 90.308505,77.269475 c 0.468306,0.551714 0.318044,1.36701 -0.342462,1.829771 l -1.128677,0.79334 c -0.657265,0.462131 -1.562368,0.389702 -2.029889,-0.162012 L 62.063446,50.530085 c -0.4683,-0.551716 -0.318051,-1.367061 0.342467,-1.829772 l 1.128561,-0.793316 c 0.657274,-0.462134 1.562486,-0.389729 2.030003,0.161987 z m -8.799391,34.564706 14.504701,-23.49117 c 0.401796,-0.650473 1.287963,-0.925661 1.98721,-0.617657 l 1.20053,0.529295 c 0.699732,0.30818 0.939268,1.079614 0.537477,1.730026 L 60.490292,84.275349 c -0.401797,0.650471 -1.287964,0.925659 -1.98721,0.617656 L 57.30254,84.363712 c -0.699723,-0.308184 -0.939274,-1.079613 -0.537465,-1.730019 z m 0.486541,-35.282689 14.377888,-3.432846 c 0.792393,-0.189082 1.551078,0.217432 1.701245,0.911751 l 0.258227,1.192422 c 0.150648,0.6944 -0.367107,1.405509 -1.159618,1.594521 L 58.05158,51.049671 c -0.792394,0.189084 -1.55119,-0.217404 -1.701247,-0.91175 L 56.0921,48.945503 c -0.150638,-0.694403 0.367115,-1.40551 1.15868,-1.5948 z m 14.458223,7.232521 30.787401,-7.350792 c 0.79239,-0.189102 1.5512,0.217404 1.70125,0.911761 l 0.25824,1.192427 c 0.1506,0.694406 -0.36712,1.405512 -1.15975,1.594542 l -30.787394,7.3508 c -0.792393,0.189084 -1.551079,-0.21743 -1.701245,-0.91174 l -0.258234,-1.192428 c -0.150529,-0.69443 0.367114,-1.405512 1.159737,-1.59455 z m -10.201915,28.86609 21.235007,-5.070035 c 0.792381,-0.189081 1.551175,0.217408 1.701235,0.911754 l 0.258336,1.192392 c 0.150486,0.694434 -0.367118,1.405515 -1.159734,1.594552 L 62.307889,87.14828 c -0.792394,0.189082 -1.551179,-0.217407 -1.70125,-0.911749 l -0.258232,-1.19242 c -0.150638,-0.694403 0.367117,-1.405511 1.158681,-1.594799 z m 28.202777,0.05636 c 0.792393,-0.189084 1.551079,0.217431 1.701247,0.911749 l 1.366922,6.320601 c 0.150594,0.694408 -0.367129,1.405515 -1.158689,1.594799 -0.792394,0.189084 -1.551079,-0.217431 -1.701246,-0.911748 l -1.367024,-6.320625 c -0.150594,-0.694408 0.367118,-1.405512 1.159746,-1.594554 z m -1.771464,8.149387 5.721662,-2.742604 c 0.772186,-0.370389 1.680047,-0.135177 2.035316,0.526854 l 0.198673,0.370086 c 0.355715,0.6621 0.0198,1.493107 -0.753117,1.863211 l -5.721167,2.742742 c -0.772261,0.370403 -1.680116,0.135289 -2.035392,-0.526852 l -0.198674,-0.370087 c -0.355705,-0.662102 -0.0198,-1.493102 0.753227,-1.863224 z M 95.316829,77.05331 a 6.2935273,7.2293098 72.721264 0 1 -5.694852,7.83482 6.2935273,7.2293098 72.721264 0 1 -8.358199,-4.479462 6.2935273,7.2293098 72.721264 0 1 5.69485,-7.834829 6.2935273,7.2293098 72.721264 0 1 8.358201,4.479471 z" />
      <ellipse
         style="fill:#191c4d;fill-opacity:1;stroke:none;stroke-width:1.2134;stroke-linecap:square;stroke-linejoin:bevel;stroke-dasharray:none;stroke-opacity:1;paint-order:stroke markers fill"
         id="path165-5-7"
         cx="104.15656"
         cy="97.405746"
         rx="4.3273101"
         ry="4.3063221"
         transform="matrix(0.97266061,-0.23223123,0.21139314,0.97740112,0,0)" />
      <ellipse
         style="fill:#191c4d;fill-opacity:1;stroke:none;stroke-width:1.2134;stroke-linecap:square;stroke-linejoin:bevel;stroke-dasharray:none;stroke-opacity:1;paint-order:stroke markers fill"
         id="path165-5-7-5"
         cx="38.084988"
         cy="97.405746"
         rx="4.3273101"
         ry="4.3063221"
         transform="matrix(0.97266061,-0.23223123,0.21139314,0.97740112,0,0)" />
    </g>
    <g
       id="g4"
       transform="translate(1.2688972,-12.688971)">
      <path
         style="fill:#191c4d;fill-opacity:1;stroke:#ffffff;stroke-width:4;stroke-linecap:square;stroke-linejoin:round;stroke-dasharray:none;stroke-opacity:1"
         id="path3"
         d="m 425.29448,192.01059 -11.39415,-12.31661 -16.60565,2.40376 8.1928,-14.64252 -7.41753,-15.05011 16.45758,3.26703 12.02136,-11.70524 1.97854,16.66167 14.84715,7.81587 -15.23478,7.03044 z"
         transform="matrix(0.7780896,0,0,0.7780896,90.509645,134.29682)" />
      <path
         style="fill:#191c4d;fill-opacity:1;stroke:#ffffff;stroke-width:4;stroke-linecap:square;stroke-linejoin:round;stroke-dasharray:none;stroke-opacity:1"
         id="path3-7"
         d="m 425.29448,192.01059 -11.39415,-12.31661 -16.60565,2.40376 8.1928,-14.64252 -7.41753,-15.05011 16.45758,3.26703 12.02136,-11.70524 1.97854,16.66167 14.84715,7.81587 -15.23478,7.03044 z"
         transform="matrix(0.46638304,0.34617634,-0.34617634,0.46638304,256.51522,12.105552)" />
      <path
         style="fill:#ffffff;fill-opacity:1;stroke:none;stroke-width:4;stroke-linecap:square;stroke-linejoin:round;stroke-dasharray:none;stroke-opacity:1"
         id="path3-6"
         d="m 425.29448,192.01059 -11.39415,-12.31661 -16.60565,2.40376 8.1928,-14.64252 -7.41753,-15.05011 16.45758,3.26703 12.02136,-11.70524 1.97854,16.66167 14.84715,7.81587 -15.23478,7.03044 z"
         transform="matrix(0.43669239,0,0,0.43669239,182.6648,149.21627)" />
      <path
         style="fill:#ffffff;fill-opacity:1;stroke:none;stroke-width:4;stroke-linecap:square;stroke-linejoin:round;stroke-dasharray:none;stroke-opacity:1"
         id="path3-6-9"
         d="m 425.29448,192.01059 -11.39415,-12.31661 -16.60565,2.40376 8.1928,-14.64252 -7.41753,-15.05011 16.45758,3.26703 12.02136,-11.70524 1.97854,16.66167 14.84715,7.81587 -15.23478,7.03044 z"
         transform="matrix(0.42226756,-0.27279698,0.27279698,0.42226756,191.10049,344.86729)" />
      <path
         style="fill:#191c4d;fill-opacity:1;stroke:#ffffff;stroke-width:4;stroke-linecap:square;stroke-linejoin:round;stroke-dasharray:none;stroke-opacity:1"
         id="path3-9"
         d="m 425.29448,192.01059 -11.39415,-12.31661 -16.60565,2.40376 8.1928,-14.64252 -7.41753,-15.05011 16.45758,3.26703 12.02136,-11.70524 1.97854,16.66167 14.84715,7.81587 -15.23478,7.03044 z"
         transform="matrix(-0.75157684,-0.20138441,0.20138441,-0.75157684,276.81784,559.99643)" />
      <path
         style="fill:#191c4d;fill-opacity:1;stroke:#ffffff;stroke-width:4;stroke-linecap:square;stroke-linejoin:round;stroke-dasharray:none;stroke-opacity:1"
         id="path3-7-8"
         d="m 425.29448,192.01059 -11.39415,-12.31661 -16.60565,2.40376 8.1928,-14.64252 -7.41753,-15.05011 16.45758,3.26703 12.02136,-11.70524 1.97854,16.66167 14.84715,7.81587 -15.23478,7.03044 z"
         transform="matrix(-0.36089439,-0.45508948,0.45508948,-0.36089439,84.843347,635.05873)" />
      <path
         style="fill:#ffffff;fill-opacity:1;stroke:none;stroke-width:4;stroke-linecap:square;stroke-linejoin:round;stroke-dasharray:none;stroke-opacity:1"
         id="path3-6-4"
         d="m 425.29448,192.01059 -11.39415,-12.31661 -16.60565,2.40376 8.1928,-14.64252 -7.41753,-15.05011 16.45758,3.26703 12.02136,-11.70524 1.97854,16.66167 14.84715,7.81587 -15.23478,7.03044 z"
         transform="matrix(-0.42181246,-0.11302431,0.11302431,-0.42181246,191.66424,521.73384)" />
      <path
         style="fill:#ffffff;fill-opacity:1;stroke:none;stroke-width:4;stroke-linecap:square;stroke-linejoin:round;stroke-dasharray:none;stroke-opacity:1"
         id="path3-6-9-0"
         d="m 425.29448,192.01059 -11.39415,-12.31661 -16.60565,2.40376 8.1928,-14.64252 -7.41753,-15.05011 16.45758,3.26703 12.02136,-11.70524 1.97854,16.66167 14.84715,7.81587 -15.23478,7.03044 z"
         transform="matrix(-0.4784842,0.15421076,-0.15421076,-0.4784842,234.1542,330.56615)" />
    </g>
  </g>
</svg>
